<mxfile host="app.diagrams.net" modified="2022-12-16T13:51:26.739Z" agent="5.0 (Macintosh; Intel Mac OS X 10_15_7) AppleWebKit/537.36 (KHTML, like Gecko) Chrome/108.0.0.0 Safari/537.36 Edg/108.0.1462.41" etag="FfF--pska9aHF7AJ6h-l" version="20.6.0" type="github" pages="3">
  <diagram id="47QPC2-T5nVZTvBkX9Qo" name="第 1 页">
    <mxGraphModel dx="1298" dy="739" grid="1" gridSize="10" guides="1" tooltips="1" connect="1" arrows="1" fold="1" page="1" pageScale="1" pageWidth="827" pageHeight="1169" math="0" shadow="0">
      <root>
        <mxCell id="0" />
        <mxCell id="1" parent="0" />
        <mxCell id="IILheBp9AOBWewY0YGc3-18" value="" style="rounded=0;whiteSpace=wrap;html=1;" parent="1" vertex="1">
          <mxGeometry x="80" y="320" width="830" height="420" as="geometry" />
        </mxCell>
        <mxCell id="IILheBp9AOBWewY0YGc3-16" value="" style="rounded=0;whiteSpace=wrap;html=1;" parent="1" vertex="1">
          <mxGeometry x="80" y="50" width="600" height="170" as="geometry" />
        </mxCell>
        <mxCell id="IILheBp9AOBWewY0YGc3-14" style="edgeStyle=orthogonalEdgeStyle;curved=1;rounded=0;orthogonalLoop=1;jettySize=auto;html=1;exitX=0.25;exitY=1;exitDx=0;exitDy=0;fillColor=#0050ef;strokeColor=#001DBC;" parent="1" source="IILheBp9AOBWewY0YGc3-1" target="IILheBp9AOBWewY0YGc3-5" edge="1">
          <mxGeometry relative="1" as="geometry" />
        </mxCell>
        <mxCell id="IILheBp9AOBWewY0YGc3-1" value="学习平台中控服务" style="rounded=0;whiteSpace=wrap;html=1;" parent="1" vertex="1">
          <mxGeometry x="160" y="110" width="120" height="60" as="geometry" />
        </mxCell>
        <mxCell id="IILheBp9AOBWewY0YGc3-12" style="edgeStyle=orthogonalEdgeStyle;curved=1;rounded=0;orthogonalLoop=1;jettySize=auto;html=1;exitX=0.75;exitY=1;exitDx=0;exitDy=0;fillColor=#0050ef;strokeColor=#001DBC;" parent="1" source="IILheBp9AOBWewY0YGc3-2" target="IILheBp9AOBWewY0YGc3-6" edge="1">
          <mxGeometry relative="1" as="geometry" />
        </mxCell>
        <mxCell id="IILheBp9AOBWewY0YGc3-2" value="推理平台中控服务" style="rounded=0;whiteSpace=wrap;html=1;" parent="1" vertex="1">
          <mxGeometry x="340" y="110" width="120" height="60" as="geometry" />
        </mxCell>
        <mxCell id="IILheBp9AOBWewY0YGc3-21" style="edgeStyle=orthogonalEdgeStyle;curved=1;rounded=0;orthogonalLoop=1;jettySize=auto;html=1;entryX=0.5;entryY=0;entryDx=0;entryDy=0;fillColor=#0050ef;strokeColor=#001DBC;" parent="1" source="IILheBp9AOBWewY0YGc3-3" target="IILheBp9AOBWewY0YGc3-20" edge="1">
          <mxGeometry relative="1" as="geometry" />
        </mxCell>
        <mxCell id="IILheBp9AOBWewY0YGc3-3" value="自训练web服务" style="rounded=0;whiteSpace=wrap;html=1;" parent="1" vertex="1">
          <mxGeometry x="530" y="110" width="120" height="60" as="geometry" />
        </mxCell>
        <mxCell id="IILheBp9AOBWewY0YGc3-5" value="学习平台边缘服务" style="rounded=0;whiteSpace=wrap;html=1;" parent="1" vertex="1">
          <mxGeometry x="160" y="420" width="120" height="60" as="geometry" />
        </mxCell>
        <mxCell id="IILheBp9AOBWewY0YGc3-6" value="推理平台边缘服务" style="rounded=0;whiteSpace=wrap;html=1;" parent="1" vertex="1">
          <mxGeometry x="340" y="420" width="120" height="60" as="geometry" />
        </mxCell>
        <mxCell id="IILheBp9AOBWewY0YGc3-15" style="edgeStyle=orthogonalEdgeStyle;curved=1;rounded=0;orthogonalLoop=1;jettySize=auto;html=1;entryX=1;entryY=0.5;entryDx=0;entryDy=0;" parent="1" source="IILheBp9AOBWewY0YGc3-7" target="IILheBp9AOBWewY0YGc3-8" edge="1">
          <mxGeometry relative="1" as="geometry" />
        </mxCell>
        <mxCell id="IILheBp9AOBWewY0YGc3-23" style="edgeStyle=orthogonalEdgeStyle;curved=1;rounded=0;orthogonalLoop=1;jettySize=auto;html=1;exitX=0.25;exitY=0;exitDx=0;exitDy=0;entryX=0.25;entryY=1;entryDx=0;entryDy=0;fillColor=#0050ef;strokeColor=#001DBC;" parent="1" source="IILheBp9AOBWewY0YGc3-7" target="IILheBp9AOBWewY0YGc3-20" edge="1">
          <mxGeometry relative="1" as="geometry" />
        </mxCell>
        <mxCell id="IILheBp9AOBWewY0YGc3-25" style="edgeStyle=orthogonalEdgeStyle;curved=1;rounded=0;orthogonalLoop=1;jettySize=auto;html=1;exitX=0;exitY=0;exitDx=0;exitDy=0;entryX=0;entryY=1;entryDx=0;entryDy=0;fillColor=#0050ef;strokeColor=#001DBC;" parent="1" source="IILheBp9AOBWewY0YGc3-7" target="IILheBp9AOBWewY0YGc3-20" edge="1">
          <mxGeometry relative="1" as="geometry" />
        </mxCell>
        <mxCell id="IILheBp9AOBWewY0YGc3-7" value="自训练server端" style="rounded=0;whiteSpace=wrap;html=1;" parent="1" vertex="1">
          <mxGeometry x="540" y="530" width="120" height="60" as="geometry" />
        </mxCell>
        <mxCell id="IILheBp9AOBWewY0YGc3-8" value="ceph对象存储" style="rounded=0;whiteSpace=wrap;html=1;" parent="1" vertex="1">
          <mxGeometry x="340" y="530" width="120" height="60" as="geometry" />
        </mxCell>
        <mxCell id="IILheBp9AOBWewY0YGc3-17" value="哈池" style="text;html=1;strokeColor=none;fillColor=none;align=center;verticalAlign=middle;whiteSpace=wrap;rounded=0;" parent="1" vertex="1">
          <mxGeometry x="320" y="60" width="60" height="30" as="geometry" />
        </mxCell>
        <mxCell id="IILheBp9AOBWewY0YGc3-19" value="郑州资源池" style="text;html=1;strokeColor=none;fillColor=none;align=center;verticalAlign=middle;whiteSpace=wrap;rounded=0;" parent="1" vertex="1">
          <mxGeometry x="100" y="330" width="80" height="30" as="geometry" />
        </mxCell>
        <mxCell id="IILheBp9AOBWewY0YGc3-22" style="edgeStyle=orthogonalEdgeStyle;curved=1;rounded=0;orthogonalLoop=1;jettySize=auto;html=1;entryX=0.5;entryY=0;entryDx=0;entryDy=0;fillColor=#0050ef;strokeColor=#001DBC;" parent="1" source="IILheBp9AOBWewY0YGc3-20" target="IILheBp9AOBWewY0YGc3-7" edge="1">
          <mxGeometry relative="1" as="geometry" />
        </mxCell>
        <mxCell id="IILheBp9AOBWewY0YGc3-24" style="edgeStyle=orthogonalEdgeStyle;curved=1;rounded=0;orthogonalLoop=1;jettySize=auto;html=1;exitX=0.25;exitY=0;exitDx=0;exitDy=0;entryX=1;entryY=1;entryDx=0;entryDy=0;fillColor=#0050ef;strokeColor=#001DBC;" parent="1" source="IILheBp9AOBWewY0YGc3-20" target="IILheBp9AOBWewY0YGc3-2" edge="1">
          <mxGeometry relative="1" as="geometry" />
        </mxCell>
        <mxCell id="IILheBp9AOBWewY0YGc3-26" style="edgeStyle=orthogonalEdgeStyle;curved=1;rounded=0;orthogonalLoop=1;jettySize=auto;html=1;exitX=0;exitY=0;exitDx=0;exitDy=0;entryX=0.75;entryY=1;entryDx=0;entryDy=0;fillColor=#0050ef;strokeColor=#001DBC;" parent="1" source="IILheBp9AOBWewY0YGc3-20" target="IILheBp9AOBWewY0YGc3-1" edge="1">
          <mxGeometry relative="1" as="geometry" />
        </mxCell>
        <mxCell id="IILheBp9AOBWewY0YGc3-20" value="nginx代理层" style="rounded=0;whiteSpace=wrap;html=1;" parent="1" vertex="1">
          <mxGeometry x="540" y="410" width="120" height="60" as="geometry" />
        </mxCell>
      </root>
    </mxGraphModel>
  </diagram>
  <diagram name="第 1 页 的副本" id="XWD4mv1b7VdqQmFRohe4">
    <mxGraphModel dx="1298" dy="1908" grid="1" gridSize="10" guides="1" tooltips="1" connect="1" arrows="1" fold="1" page="1" pageScale="1" pageWidth="827" pageHeight="1169" math="0" shadow="0">
      <root>
        <mxCell id="nvMOdbcGuP9wTD2PCrmF-0" />
        <mxCell id="nvMOdbcGuP9wTD2PCrmF-1" parent="nvMOdbcGuP9wTD2PCrmF-0" />
        <mxCell id="nvMOdbcGuP9wTD2PCrmF-2" value="" style="rounded=0;whiteSpace=wrap;html=1;" parent="nvMOdbcGuP9wTD2PCrmF-1" vertex="1">
          <mxGeometry x="80" y="310" width="610" height="310" as="geometry" />
        </mxCell>
        <mxCell id="nvMOdbcGuP9wTD2PCrmF-3" value="" style="rounded=0;whiteSpace=wrap;html=1;" parent="nvMOdbcGuP9wTD2PCrmF-1" vertex="1">
          <mxGeometry x="80" y="-150" width="600" height="370" as="geometry" />
        </mxCell>
        <mxCell id="nvMOdbcGuP9wTD2PCrmF-4" style="edgeStyle=orthogonalEdgeStyle;curved=1;rounded=0;orthogonalLoop=1;jettySize=auto;html=1;exitX=0.25;exitY=1;exitDx=0;exitDy=0;fillColor=#0050ef;strokeColor=#001DBC;" parent="nvMOdbcGuP9wTD2PCrmF-1" source="nvMOdbcGuP9wTD2PCrmF-5" target="nvMOdbcGuP9wTD2PCrmF-10" edge="1">
          <mxGeometry relative="1" as="geometry" />
        </mxCell>
        <mxCell id="nvMOdbcGuP9wTD2PCrmF-5" value="学习平台中控服务" style="rounded=0;whiteSpace=wrap;html=1;" parent="nvMOdbcGuP9wTD2PCrmF-1" vertex="1">
          <mxGeometry x="90" y="60" width="120" height="60" as="geometry" />
        </mxCell>
        <mxCell id="nvMOdbcGuP9wTD2PCrmF-6" style="edgeStyle=orthogonalEdgeStyle;curved=1;rounded=0;orthogonalLoop=1;jettySize=auto;html=1;exitX=0.75;exitY=1;exitDx=0;exitDy=0;fillColor=#0050ef;strokeColor=#001DBC;" parent="nvMOdbcGuP9wTD2PCrmF-1" source="nvMOdbcGuP9wTD2PCrmF-7" target="nvMOdbcGuP9wTD2PCrmF-11" edge="1">
          <mxGeometry relative="1" as="geometry" />
        </mxCell>
        <mxCell id="nvMOdbcGuP9wTD2PCrmF-7" value="推理平台中控服务" style="rounded=0;whiteSpace=wrap;html=1;" parent="nvMOdbcGuP9wTD2PCrmF-1" vertex="1">
          <mxGeometry x="230" y="130" width="120" height="60" as="geometry" />
        </mxCell>
        <mxCell id="RVTftVfRLbgIOOv-qJHU-3" style="edgeStyle=orthogonalEdgeStyle;curved=1;rounded=0;orthogonalLoop=1;jettySize=auto;html=1;fillColor=#0050ef;strokeColor=#001DBC;" parent="nvMOdbcGuP9wTD2PCrmF-1" source="nvMOdbcGuP9wTD2PCrmF-9" target="nvMOdbcGuP9wTD2PCrmF-15" edge="1">
          <mxGeometry relative="1" as="geometry" />
        </mxCell>
        <mxCell id="nvMOdbcGuP9wTD2PCrmF-9" value="自训练web服务" style="rounded=0;whiteSpace=wrap;html=1;" parent="nvMOdbcGuP9wTD2PCrmF-1" vertex="1">
          <mxGeometry x="490" y="-70" width="120" height="60" as="geometry" />
        </mxCell>
        <mxCell id="aSJpgpNqqqhU2J2hZtxi-2" style="edgeStyle=orthogonalEdgeStyle;curved=1;rounded=0;orthogonalLoop=1;jettySize=auto;html=1;entryX=0;entryY=0.5;entryDx=0;entryDy=0;strokeColor=#0000FF;" edge="1" parent="nvMOdbcGuP9wTD2PCrmF-1" source="nvMOdbcGuP9wTD2PCrmF-10" target="aSJpgpNqqqhU2J2hZtxi-0">
          <mxGeometry relative="1" as="geometry" />
        </mxCell>
        <mxCell id="nvMOdbcGuP9wTD2PCrmF-10" value="学习平台边缘服务" style="rounded=0;whiteSpace=wrap;html=1;" parent="nvMOdbcGuP9wTD2PCrmF-1" vertex="1">
          <mxGeometry x="110" y="410" width="120" height="60" as="geometry" />
        </mxCell>
        <mxCell id="nvMOdbcGuP9wTD2PCrmF-11" value="推理平台边缘服务" style="rounded=0;whiteSpace=wrap;html=1;" parent="nvMOdbcGuP9wTD2PCrmF-1" vertex="1">
          <mxGeometry x="230" y="330" width="120" height="60" as="geometry" />
        </mxCell>
        <mxCell id="RVTftVfRLbgIOOv-qJHU-1" style="edgeStyle=orthogonalEdgeStyle;curved=1;rounded=0;orthogonalLoop=1;jettySize=auto;html=1;fillColor=#0050ef;strokeColor=#001DBC;" parent="nvMOdbcGuP9wTD2PCrmF-1" source="nvMOdbcGuP9wTD2PCrmF-15" target="RVTftVfRLbgIOOv-qJHU-0" edge="1">
          <mxGeometry relative="1" as="geometry" />
        </mxCell>
        <mxCell id="RVTftVfRLbgIOOv-qJHU-4" style="edgeStyle=orthogonalEdgeStyle;curved=1;rounded=0;orthogonalLoop=1;jettySize=auto;html=1;entryX=0.5;entryY=0;entryDx=0;entryDy=0;fillColor=#0050ef;strokeColor=#001DBC;" parent="nvMOdbcGuP9wTD2PCrmF-1" source="nvMOdbcGuP9wTD2PCrmF-15" target="nvMOdbcGuP9wTD2PCrmF-7" edge="1">
          <mxGeometry relative="1" as="geometry" />
        </mxCell>
        <mxCell id="RVTftVfRLbgIOOv-qJHU-5" style="edgeStyle=orthogonalEdgeStyle;curved=1;rounded=0;orthogonalLoop=1;jettySize=auto;html=1;exitX=0;exitY=0;exitDx=0;exitDy=0;entryX=0.5;entryY=0;entryDx=0;entryDy=0;fillColor=#0050ef;strokeColor=#001DBC;" parent="nvMOdbcGuP9wTD2PCrmF-1" source="nvMOdbcGuP9wTD2PCrmF-15" target="nvMOdbcGuP9wTD2PCrmF-5" edge="1">
          <mxGeometry relative="1" as="geometry" />
        </mxCell>
        <mxCell id="nvMOdbcGuP9wTD2PCrmF-15" value="自训练server端" style="rounded=0;whiteSpace=wrap;html=1;" parent="nvMOdbcGuP9wTD2PCrmF-1" vertex="1">
          <mxGeometry x="490" y="20" width="120" height="60" as="geometry" />
        </mxCell>
        <mxCell id="nvMOdbcGuP9wTD2PCrmF-16" value="ceph对象存储" style="rounded=0;whiteSpace=wrap;html=1;" parent="nvMOdbcGuP9wTD2PCrmF-1" vertex="1">
          <mxGeometry x="510" y="540" width="120" height="60" as="geometry" />
        </mxCell>
        <mxCell id="nvMOdbcGuP9wTD2PCrmF-17" value="哈池" style="text;html=1;strokeColor=none;fillColor=none;align=center;verticalAlign=middle;whiteSpace=wrap;rounded=0;" parent="nvMOdbcGuP9wTD2PCrmF-1" vertex="1">
          <mxGeometry x="310" y="-120" width="60" height="30" as="geometry" />
        </mxCell>
        <mxCell id="nvMOdbcGuP9wTD2PCrmF-18" value="郑州资源池" style="text;html=1;strokeColor=none;fillColor=none;align=center;verticalAlign=middle;whiteSpace=wrap;rounded=0;" parent="nvMOdbcGuP9wTD2PCrmF-1" vertex="1">
          <mxGeometry x="100" y="330" width="80" height="30" as="geometry" />
        </mxCell>
        <mxCell id="XnjpQkrsaq3WBOR2KgQ--1" style="edgeStyle=orthogonalEdgeStyle;curved=1;rounded=0;orthogonalLoop=1;jettySize=auto;html=1;" parent="nvMOdbcGuP9wTD2PCrmF-1" source="RVTftVfRLbgIOOv-qJHU-0" target="XnjpQkrsaq3WBOR2KgQ--0" edge="1">
          <mxGeometry relative="1" as="geometry" />
        </mxCell>
        <mxCell id="RVTftVfRLbgIOOv-qJHU-0" value="nginx" style="rounded=0;whiteSpace=wrap;html=1;" parent="nvMOdbcGuP9wTD2PCrmF-1" vertex="1">
          <mxGeometry x="550" y="130" width="120" height="60" as="geometry" />
        </mxCell>
        <mxCell id="XnjpQkrsaq3WBOR2KgQ--2" style="edgeStyle=orthogonalEdgeStyle;curved=1;rounded=0;orthogonalLoop=1;jettySize=auto;html=1;entryX=0.5;entryY=0;entryDx=0;entryDy=0;" parent="nvMOdbcGuP9wTD2PCrmF-1" source="XnjpQkrsaq3WBOR2KgQ--0" target="nvMOdbcGuP9wTD2PCrmF-16" edge="1">
          <mxGeometry relative="1" as="geometry" />
        </mxCell>
        <mxCell id="XnjpQkrsaq3WBOR2KgQ--0" value="nginx" style="rounded=0;whiteSpace=wrap;html=1;" parent="nvMOdbcGuP9wTD2PCrmF-1" vertex="1">
          <mxGeometry x="550" y="350" width="120" height="60" as="geometry" />
        </mxCell>
        <mxCell id="aSJpgpNqqqhU2J2hZtxi-4" style="edgeStyle=orthogonalEdgeStyle;curved=1;rounded=0;orthogonalLoop=1;jettySize=auto;html=1;entryX=0.5;entryY=1;entryDx=0;entryDy=0;strokeColor=#FF0000;exitX=0.5;exitY=0;exitDx=0;exitDy=0;strokeWidth=2;" edge="1" parent="nvMOdbcGuP9wTD2PCrmF-1" source="aSJpgpNqqqhU2J2hZtxi-0" target="aSJpgpNqqqhU2J2hZtxi-5">
          <mxGeometry relative="1" as="geometry" />
        </mxCell>
        <mxCell id="aSJpgpNqqqhU2J2hZtxi-0" value="自训练启动的训练pod" style="rounded=0;whiteSpace=wrap;html=1;" vertex="1" parent="nvMOdbcGuP9wTD2PCrmF-1">
          <mxGeometry x="320" y="540" width="120" height="60" as="geometry" />
        </mxCell>
        <mxCell id="aSJpgpNqqqhU2J2hZtxi-6" style="edgeStyle=orthogonalEdgeStyle;curved=1;rounded=0;orthogonalLoop=1;jettySize=auto;html=1;entryX=0.25;entryY=1;entryDx=0;entryDy=0;strokeColor=#FF0000;strokeWidth=2;" edge="1" parent="nvMOdbcGuP9wTD2PCrmF-1" source="aSJpgpNqqqhU2J2hZtxi-5" target="nvMOdbcGuP9wTD2PCrmF-15">
          <mxGeometry relative="1" as="geometry" />
        </mxCell>
        <mxCell id="aSJpgpNqqqhU2J2hZtxi-5" value="nginx" style="rounded=0;whiteSpace=wrap;html=1;fillColor=#ffe6cc;strokeColor=#d79b00;" vertex="1" parent="nvMOdbcGuP9wTD2PCrmF-1">
          <mxGeometry x="390" y="340" width="120" height="60" as="geometry" />
        </mxCell>
        <mxCell id="aSJpgpNqqqhU2J2hZtxi-7" value="ip:port" style="rounded=0;whiteSpace=wrap;html=1;" vertex="1" parent="nvMOdbcGuP9wTD2PCrmF-1">
          <mxGeometry x="380" y="130" width="120" height="60" as="geometry" />
        </mxCell>
      </root>
    </mxGraphModel>
  </diagram>
  <diagram name="第 1 页 的副本" id="TtfPzhOBKzGoAMEfsePf">
    <mxGraphModel dx="1038" dy="556" grid="1" gridSize="10" guides="1" tooltips="1" connect="1" arrows="1" fold="1" page="1" pageScale="1" pageWidth="827" pageHeight="1169" math="0" shadow="0">
      <root>
        <mxCell id="lojI1iq-oZ9nXZhqz7kL-0" />
        <mxCell id="lojI1iq-oZ9nXZhqz7kL-1" parent="lojI1iq-oZ9nXZhqz7kL-0" />
        <mxCell id="lojI1iq-oZ9nXZhqz7kL-2" value="" style="rounded=0;whiteSpace=wrap;html=1;" vertex="1" parent="lojI1iq-oZ9nXZhqz7kL-1">
          <mxGeometry x="80" y="320" width="610" height="310" as="geometry" />
        </mxCell>
        <mxCell id="lojI1iq-oZ9nXZhqz7kL-3" value="" style="rounded=0;whiteSpace=wrap;html=1;" vertex="1" parent="lojI1iq-oZ9nXZhqz7kL-1">
          <mxGeometry x="80" y="50" width="600" height="230" as="geometry" />
        </mxCell>
        <mxCell id="lojI1iq-oZ9nXZhqz7kL-4" style="edgeStyle=orthogonalEdgeStyle;curved=1;rounded=0;orthogonalLoop=1;jettySize=auto;html=1;exitX=0.25;exitY=1;exitDx=0;exitDy=0;fillColor=#0050ef;strokeColor=#001DBC;" edge="1" parent="lojI1iq-oZ9nXZhqz7kL-1" source="lojI1iq-oZ9nXZhqz7kL-5" target="lojI1iq-oZ9nXZhqz7kL-10">
          <mxGeometry relative="1" as="geometry" />
        </mxCell>
        <mxCell id="lojI1iq-oZ9nXZhqz7kL-5" value="学习平台中控服务" style="rounded=0;whiteSpace=wrap;html=1;" vertex="1" parent="lojI1iq-oZ9nXZhqz7kL-1">
          <mxGeometry x="160" y="110" width="120" height="60" as="geometry" />
        </mxCell>
        <mxCell id="lojI1iq-oZ9nXZhqz7kL-6" style="edgeStyle=orthogonalEdgeStyle;curved=1;rounded=0;orthogonalLoop=1;jettySize=auto;html=1;exitX=0.75;exitY=1;exitDx=0;exitDy=0;fillColor=#0050ef;strokeColor=#001DBC;" edge="1" parent="lojI1iq-oZ9nXZhqz7kL-1" source="lojI1iq-oZ9nXZhqz7kL-7" target="lojI1iq-oZ9nXZhqz7kL-11">
          <mxGeometry relative="1" as="geometry" />
        </mxCell>
        <mxCell id="lojI1iq-oZ9nXZhqz7kL-7" value="推理平台中控服务" style="rounded=0;whiteSpace=wrap;html=1;" vertex="1" parent="lojI1iq-oZ9nXZhqz7kL-1">
          <mxGeometry x="310" y="200" width="120" height="60" as="geometry" />
        </mxCell>
        <mxCell id="XmrzGg2N1NdQyHCbC9LS-0" style="edgeStyle=orthogonalEdgeStyle;curved=1;rounded=0;orthogonalLoop=1;jettySize=auto;html=1;entryX=1;entryY=0.5;entryDx=0;entryDy=0;" edge="1" parent="lojI1iq-oZ9nXZhqz7kL-1" source="lojI1iq-oZ9nXZhqz7kL-9" target="lojI1iq-oZ9nXZhqz7kL-15">
          <mxGeometry relative="1" as="geometry" />
        </mxCell>
        <mxCell id="XmrzGg2N1NdQyHCbC9LS-4" value="" style="edgeStyle=orthogonalEdgeStyle;curved=1;rounded=0;orthogonalLoop=1;jettySize=auto;html=1;fillColor=#0050ef;strokeColor=#001DBC;" edge="1" parent="lojI1iq-oZ9nXZhqz7kL-1" source="lojI1iq-oZ9nXZhqz7kL-9" target="lojI1iq-oZ9nXZhqz7kL-15">
          <mxGeometry relative="1" as="geometry" />
        </mxCell>
        <mxCell id="lojI1iq-oZ9nXZhqz7kL-9" value="自训练web服务" style="rounded=0;whiteSpace=wrap;html=1;" vertex="1" parent="lojI1iq-oZ9nXZhqz7kL-1">
          <mxGeometry x="510" y="100" width="120" height="60" as="geometry" />
        </mxCell>
        <mxCell id="XmrzGg2N1NdQyHCbC9LS-3" style="edgeStyle=orthogonalEdgeStyle;curved=1;rounded=0;orthogonalLoop=1;jettySize=auto;html=1;entryX=0.5;entryY=0;entryDx=0;entryDy=0;fillColor=#0050ef;strokeColor=#001DBC;" edge="1" parent="lojI1iq-oZ9nXZhqz7kL-1" source="lojI1iq-oZ9nXZhqz7kL-10" target="lojI1iq-oZ9nXZhqz7kL-16">
          <mxGeometry relative="1" as="geometry" />
        </mxCell>
        <mxCell id="lojI1iq-oZ9nXZhqz7kL-10" value="学习平台边缘服务" style="rounded=0;whiteSpace=wrap;html=1;" vertex="1" parent="lojI1iq-oZ9nXZhqz7kL-1">
          <mxGeometry x="160" y="370" width="120" height="60" as="geometry" />
        </mxCell>
        <mxCell id="lojI1iq-oZ9nXZhqz7kL-11" value="推理平台边缘服务" style="rounded=0;whiteSpace=wrap;html=1;" vertex="1" parent="lojI1iq-oZ9nXZhqz7kL-1">
          <mxGeometry x="340" y="360" width="120" height="60" as="geometry" />
        </mxCell>
        <mxCell id="XmrzGg2N1NdQyHCbC9LS-1" style="edgeStyle=orthogonalEdgeStyle;curved=1;rounded=0;orthogonalLoop=1;jettySize=auto;html=1;fillColor=#0050ef;strokeColor=#001DBC;" edge="1" parent="lojI1iq-oZ9nXZhqz7kL-1" source="lojI1iq-oZ9nXZhqz7kL-15" target="lojI1iq-oZ9nXZhqz7kL-7">
          <mxGeometry relative="1" as="geometry" />
        </mxCell>
        <mxCell id="XmrzGg2N1NdQyHCbC9LS-2" style="edgeStyle=orthogonalEdgeStyle;curved=1;rounded=0;orthogonalLoop=1;jettySize=auto;html=1;exitX=0;exitY=0.5;exitDx=0;exitDy=0;entryX=1;entryY=0.5;entryDx=0;entryDy=0;fillColor=#0050ef;strokeColor=#001DBC;" edge="1" parent="lojI1iq-oZ9nXZhqz7kL-1" source="lojI1iq-oZ9nXZhqz7kL-15" target="lojI1iq-oZ9nXZhqz7kL-5">
          <mxGeometry relative="1" as="geometry" />
        </mxCell>
        <mxCell id="lojI1iq-oZ9nXZhqz7kL-15" value="自训练server端" style="rounded=0;whiteSpace=wrap;html=1;" vertex="1" parent="lojI1iq-oZ9nXZhqz7kL-1">
          <mxGeometry x="320" y="100" width="120" height="60" as="geometry" />
        </mxCell>
        <mxCell id="lojI1iq-oZ9nXZhqz7kL-16" value="ceph对象存储" style="rounded=0;whiteSpace=wrap;html=1;" vertex="1" parent="lojI1iq-oZ9nXZhqz7kL-1">
          <mxGeometry x="180" y="490" width="120" height="60" as="geometry" />
        </mxCell>
        <mxCell id="lojI1iq-oZ9nXZhqz7kL-17" value="哈池" style="text;html=1;strokeColor=none;fillColor=none;align=center;verticalAlign=middle;whiteSpace=wrap;rounded=0;" vertex="1" parent="lojI1iq-oZ9nXZhqz7kL-1">
          <mxGeometry x="320" y="60" width="60" height="30" as="geometry" />
        </mxCell>
        <mxCell id="lojI1iq-oZ9nXZhqz7kL-18" value="郑州资源池" style="text;html=1;strokeColor=none;fillColor=none;align=center;verticalAlign=middle;whiteSpace=wrap;rounded=0;" vertex="1" parent="lojI1iq-oZ9nXZhqz7kL-1">
          <mxGeometry x="100" y="330" width="80" height="30" as="geometry" />
        </mxCell>
      </root>
    </mxGraphModel>
  </diagram>
</mxfile>
